<svg version="1.2" xmlns="http://www.w3.org/2000/svg" viewBox="0 0 384 310" width="384" height="310">
	<title>ligosvg-svg</title>
	<style>
		tspan { white-space:pre } 
		.s0 { fill: #ffffff } 
		.t1 { font-size: 23px;fill: #ffffff;font-family: "a Area Kilometer50" } 
	</style>
	<path id="Layer" class="s0" d="m101.5 106.6l-85.7-1.3c10.6 9.6 24.6 15.6 40 15.9l85.7 1.3c-10.6-9.7-24.6-15.6-40-15.9z"/>
	<path id="Layer" class="s0" d="m245.7 201.3l-51.6-0.7 1.9-118.9-41.9-0.6-0.6 42.6c5.3 1.1 10.4 2.8 15.2 5.1l0.5-32.3 11.2 0.2-0.8 53.8c-9.6-10.1-23.2-16.6-38.3-16.8l-83.1-1.3c10.6 9.7 24.6 15.7 40 15.9l42.8 0.7c21.3 0.3 38.3 17.8 38 38.9l-0.1 8.1-0.3 19.6 66.8 1-0.2 11.3-78.1-1.2 0.6-38.8c0.3-15-11.8-27.4-26.8-27.7l-40.3-0.6c10.6 9.7 24.7 15.7 40.1 15.9 6.6 0.2 11.9 5.6 11.8 12.2l-0.9 54 20.2 0.3 88.5 1.4 0.6-41.8-15.3-0.3z"/>
	<g id="Layer">
		<text id="LIGO G" style="transform: matrix(.951,.015,-0.015,.999,151.035,270.56)" >
			<tspan x="0" y="0" class="t1">LIGO G
</tspan>
		</text>
		<text id="R" style="transform: matrix(.951,.015,-0.015,.999,284.51,272.617)" >
			<tspan x="0" y="0" class="t1">R
</tspan>
		</text>
		<text id="OUP" style="transform: matrix(.951,.015,-0.015,.999,308.028,272.98)" >
			<tspan x="0" y="0" class="t1">OUP
</tspan>
		</text>
	</g>
</svg>